<svg id="Filled" height="512" viewBox="0 0 512 512" width="512" xmlns="http://www.w3.org/2000/svg"><g><path d="m8 48h496v32h-496z" fill="#9fdc6e"/><path d="m24 80h464v392.001h-464z" fill="#ffefed"/><path d="m56 80h160v32h-160z" fill="#f15a57"/><path d="m24 80h32v392.001h-32z" fill="#fdc069"/><path d="m8 472.001h496v32h-496z" fill="#9fdc6e"/><circle cx="352" cy="240" fill="#fdc069" r="104"/><path d="m359.279 296h-14.558a40 40 0 0 1 -35.777-22.111l-.721-1.443a40 40 0 0 1 -4.223-17.889v-46.557l16-32 16 32h32l16-32 16 32v46.557a40 40 0 0 1 -4.223 17.889l-.721 1.443a40 40 0 0 1 -35.777 22.111z" fill="#f15a57"/><path d="m136 392a32 32 0 0 1 32 32v48a0 0 0 0 1 0 0h-64a0 0 0 0 1 0 0v-48a32 32 0 0 1 32-32z" fill="#ffd4cf"/><path d="m216 376h272v96h-272z" fill="#f15a57"/><path d="m56 328h160v32h-160z" fill="#f15a57"/><path d="m175.685 190v-30l-22.408 18.145a70.624 70.624 0 0 0 -34.791.062l-22.486-18.207v30.314c-5.051 5.067-8 11.146-8 17.686 0 17.673 21.49 32 48 32s48-14.327 48-32c0-6.676-3.07-12.872-8.315-18z" fill="#ffd4cf"/><path d="m488 48h-464l16-40h432z" fill="#fdc069"/><g><path d="m496 144v-56h8a8 8 0 0 0 8-8v-32a8 8 0 0 0 -8-8h-10.584l-13.988-34.971a8 8 0 0 0 -7.428-5.029h-360v16h354.584l9.6 24h-440.368l9.6-24h50.584v-16h-56a8 8 0 0 0 -7.428 5.029l-13.988 34.971h-10.584a8 8 0 0 0 -8 8v32a8 8 0 0 0 8 8h8v376h-8a8 8 0 0 0 -8 8v32a8 8 0 0 0 8 8h360v-16h-352v-16h480v16h-112v16h120a8 8 0 0 0 8-8v-32a8 8 0 0 0 -8-8h-8v-304h-16v208h-256v-280h56v66.141a112.324 112.324 0 0 0 -27.379 34.159l14.19 7.394a95.427 95.427 0 1 1 -6.183 14.761l-15.228-4.913a112.027 112.027 0 1 0 178.6-51.268v-66.274h56v56zm-464-56h16v376h-16zm176 376h-32v-40a40 40 0 0 0 -80 0v40h-32v-96h144zm-96 0v-40a24 24 0 0 1 48 0v40zm96-112h-144v-16h144zm-144-32v-200h64v48.405c-2.538.255-5.051.631-7.513 1.13l-19.453-15.752a8 8 0 0 0 -13.034 6.217v27.208a31.978 31.978 0 0 0 -8 20.792c0 22.43 24.6 40 56 40s56-17.57 56-40c0-7.607-2.862-14.864-8.314-21.166v-26.834a8 8 0 0 0 -13.035-6.217l-19.39 15.7c-2.382-.474-4.809-.834-7.261-1.079v-48.404h64v200zm106.092-124.282c2.695 2.636 5.908 6.907 5.908 12.282 0 13.009-18.317 24-40 24s-40-10.991-40-24c0-5.252 3.081-9.445 5.666-12.038a8 8 0 0 0 2.334-5.648v-13.542l9.45 7.653a8 8 0 0 0 7.059 1.522 62.619 62.619 0 0 1 30.774-.054 8.006 8.006 0 0 0 7.029-1.531l9.374-7.59v13.228a8 8 0 0 0 2.406 5.718zm309.908 188.282v80h-256v-80zm-272-280h-144v-16h144zm200 39.031a112.131 112.131 0 0 0 -112-.092v-54.939h112zm-392-71.031v-16h480v16z"/><path d="m407.155 204.422-16-32a8 8 0 0 0 -14.31 0l-13.789 27.578h-22.112l-13.789-27.578a8 8 0 0 0 -14.31 0l-16 32a7.994 7.994 0 0 0 -.845 3.578v21.754l-22.06-5.515-3.88 15.522 25.94 6.485v8.311a47.726 47.726 0 0 0 .263 4.986l-20.7 13.8 8.876 13.312 16.46-10.974c.056.115.112.229.169.342l.722 1.442a47.738 47.738 0 0 0 42.932 26.535h14.556a47.738 47.738 0 0 0 42.933-26.533l.723-1.444.168-.34 16.46 10.973 8.876-13.312-20.7-13.8a47.726 47.726 0 0 0 .263-4.986v-8.311l25.94-6.485-3.88-15.522-22.061 5.514v-21.754a7.994 7.994 0 0 0 -.845-3.578zm-15.155 50.135a32.16 32.16 0 0 1 -3.378 14.31l-.722 1.444a31.824 31.824 0 0 1 -28.622 17.689h-14.556a31.823 31.823 0 0 1 -28.622-17.69l-.721-1.441a32.162 32.162 0 0 1 -3.379-14.312v-44.668l8-16 8.845 17.689a8 8 0 0 0 7.155 4.422h32a8 8 0 0 0 7.155-4.422l8.845-17.689 8 16z"/><path d="m328 232h16v16h-16z"/><path d="m360 232h16v16h-16z"/><path d="m248 400h40v16h-40z"/><path d="m304 432h40v16h-40z"/><path d="m360 408h40v16h-40z"/><path d="m416 432h40v16h-40z"/></g></g></svg>