<?xml version="1.0" encoding="UTF-8"?>
<svg xmlns="http://www.w3.org/2000/svg" width="512" height="512" viewBox="0 0 128 128"><g><g><path d="M69,59h57.032A62.235,62.235,0,0,0,69,1.968Z" fill="#54528e"/><path d="M76.071,69,111.4,104.329A61.95,61.95,0,0,0,126.032,69Z" fill="#fff06d"/><path d="M59,66.071V1.968A62.241,62.241,0,1,0,104.329,111.4Z" fill="#2fe6a9"/><path d="M77,51V11.321A53.832,53.832,0,0,1,116.678,51Z" fill="#443c67"/><path d="M95.385,77H116.67a53.511,53.511,0,0,1-6.235,15.05Z" fill="#ffbf2d"/><path d="M64,118.25a54.241,54.241,0,0,1-13-106.9V69.385l41.042,41.042A54.244,54.244,0,0,1,64,118.25Z" fill="#26bfb8"/></g><g><path d="M69,60.75h57.032a1.749,1.749,0,0,0,1.745-1.889A63.988,63.988,0,0,0,69.139.224,1.749,1.749,0,0,0,67.25,1.968V59A1.75,1.75,0,0,0,69,60.75ZM70.75,3.892A60.116,60.116,0,0,1,124.108,57.25H70.75Z"/><path d="M126.032,67.25H76.071a1.75,1.75,0,0,0-1.237,2.987l35.329,35.329a1.745,1.745,0,0,0,1.237.513h.07a1.746,1.746,0,0,0,1.262-.614,63.448,63.448,0,0,0,15.045-36.325,1.751,1.751,0,0,0-1.745-1.889Zm-14.755,34.48L80.3,70.75h43.812A59.9,59.9,0,0,1,111.277,101.73Z"/><path d="M60.75,65.347V1.968A1.746,1.746,0,0,0,60.187.683,1.726,1.726,0,0,0,58.861.224a63.991,63.991,0,1,0,46.6,112.508,1.749,1.749,0,0,0,.1-2.569ZM64,124.5A60.492,60.492,0,0,1,57.25,3.893V66.071a1.754,1.754,0,0,0,.513,1.238l43.967,43.967A60.511,60.511,0,0,1,64,124.5Z"/><path d="M97.937,49.25H94.469a1.75,1.75,0,0,0,0,3.5h3.468a1.75,1.75,0,1,0,0-3.5Z"/><path d="M118.379,50.587A55.455,55.455,0,0,0,77.413,9.621a1.749,1.749,0,0,0-2.163,1.7V51A1.75,1.75,0,0,0,77,52.75h6.875a1.75,1.75,0,0,0,0-3.5H78.75V13.6A51.929,51.929,0,0,1,114.4,49.25h-5.873a1.75,1.75,0,0,0,0,3.5h8.147a1.75,1.75,0,0,0,1.7-2.163Z"/><path d="M94.147,78.237,109.2,93.287a1.75,1.75,0,0,0,1.237.513,1.629,1.629,0,0,0,.209-.013,1.75,1.75,0,0,0,1.287-.829,55.275,55.275,0,0,0,6.439-15.542,1.75,1.75,0,0,0-1.7-2.166H95.385a1.75,1.75,0,0,0-1.238,2.987Zm20.243.513a51.694,51.694,0,0,1-4.33,10.45L99.61,78.75Z"/><path d="M52.75,11.346a1.751,1.751,0,0,0-2.171-1.7A56.641,56.641,0,0,0,8,64a56.063,56.063,0,0,0,56,56,1.75,1.75,0,0,0,0-3.5A52.56,52.56,0,0,1,11.5,64,53.138,53.138,0,0,1,49.25,13.634V69.385a1.75,1.75,0,0,0,.513,1.237L89.19,110.05a52.681,52.681,0,0,1-8.076,3.574,1.75,1.75,0,1,0,1.143,3.309,56.171,56.171,0,0,0,10.691-5.008,1.75,1.75,0,0,0,.332-2.735L52.75,68.66Z"/></g></g></svg>
