<svg id="Capa_1" enable-background="new 0 0 512 512" height="512" viewBox="0 0 512 512" width="512" xmlns="http://www.w3.org/2000/svg"><g id="XMLID_1072_"><path id="XMLID_580_" d="m64 389h-54v-44h492v44h-60z" fill="#e2e9ee"/><path id="XMLID_579_" d="m354 143h83.086l52.914 88h-136z" fill="#ccf5fc"/><path id="XMLID_1181_" d="m10 69h344v276h-344z" fill="#33d6f5"/><path id="XMLID_1180_" d="m354 231h148v114h-148z" fill="#ff7d97"/><path id="XMLID_1182_" d="m457 231h45v40.333h-45z" fill="#fff"/><g id="XMLID_1116_" fill="#ffc8b8"><path id="XMLID_1128_" d="m216.209 208.593c-1.558-6.466-4.975-12.574-10.257-17.473-13.368-12.398-34.281-12.398-47.649 0-5.282 4.899-8.699 11.007-10.257 17.473-1.237 5.133-4.804 9.338-9.584 11.58-12.151 5.7-20.497 18.161-20.182 32.542.406 18.564 15.463 33.734 34.024 34.27 7.58.219 14.634-1.97 20.461-5.856 5.654-3.772 13.072-3.772 18.726 0 5.826 3.887 12.881 6.075 20.461 5.856 18.561-.536 33.618-15.705 34.024-34.27.315-14.381-8.032-26.842-20.182-32.542-4.781-2.242-8.348-6.447-9.585-11.58z"/><ellipse id="XMLID_1127_" cx="156.07" cy="157.542" rx="25.39" ry="30.542"/><ellipse id="XMLID_1126_" cx="238.703" cy="198.335" rx="25.064" ry="21.711" transform="matrix(.425 -.905 .905 .425 -42.328 330.008)"/><ellipse id="XMLID_1123_" cx="208.184" cy="157.542" rx="25.39" ry="30.542"/><ellipse id="XMLID_1119_" cx="125.297" cy="198.335" rx="21.711" ry="25.064" transform="matrix(.905 -.425 .425 .905 -72.462 72.13)"/></g><circle id="XMLID_1130_" cx="108" cy="399" fill="#8aa8bd" r="44"/><circle id="XMLID_1129_" cx="398" cy="399" fill="#8aa8bd" r="44"/><g id="XMLID_508_"><path id="XMLID_511_" d="m120.68 157.542c0 2.163.152 4.285.438 6.357-3.652.201-7.283 1.079-10.736 2.702-15.825 7.438-22.009 27.725-13.785 45.222 3.749 7.978 9.966 14.291 17.553 17.875-3.938 6.939-6.05 14.933-5.869 23.235.525 24.006 20.403 43.364 44.401 44.057.446.013-.445 0 0 0 8.932 0 18.204-2.589 25.631-7.542 2.281-1.521 5.346-1.522 7.627 0 7.796 5.2 16.884 7.806 26.298 7.532 23.998-.693 43.208-20.041 43.733-44.046.182-8.34-1.949-16.37-5.921-23.331 7.496-3.6 13.636-9.873 17.352-17.78 8.224-17.498 2.04-37.784-13.786-45.222-3.373-1.585-6.917-2.455-10.485-2.682.288-2.079.442-4.208.442-6.377 0-22.355-15.876-40.542-35.391-40.542-10.3 0-19.583 5.07-26.057 13.142-6.471-8.072-15.755-13.142-26.055-13.142-19.514 0-35.39 18.187-35.39 40.542zm-1.79 27.16c1.228-.577 2.549-.85 3.902-.85 4.976 0 10.374 3.691 13.105 9.502 1.825 3.883 2.253 8.066 1.208 11.78-.521 1.849-1.915 5.196-5.4 6.834-3.485 1.637-6.952.575-8.707-.204-3.527-1.565-6.474-4.565-8.299-8.448-3.474-7.389-1.554-15.914 4.191-18.614zm92.772 92.287c-5.244.146-10.296-1.293-14.622-4.179-4.53-3.022-9.721-4.532-14.913-4.532-5.191 0-10.383 1.511-14.912 4.532-4.327 2.886-9.37 4.317-14.624 4.18-13.343-.386-24.023-11.144-24.315-24.493-.217-9.921 5.448-19.055 14.432-23.27 7.631-3.58 13.119-10.246 15.059-18.291 1.153-4.785 3.69-9.102 7.336-12.483 9.546-8.854 24.502-8.854 34.048 0 3.646 3.381 6.183 7.698 7.336 12.483 1.939 8.044 7.428 14.71 15.059 18.29 8.984 4.214 14.648 13.348 14.432 23.27-.292 13.349-10.973 24.108-24.316 24.493zm37.64-73.673c-1.825 3.883-4.772 6.883-8.299 8.448-1.756.779-5.224 1.841-8.708.204-3.485-1.638-4.879-4.985-5.4-6.834-1.046-3.714-.617-7.897 1.208-11.78 2.731-5.811 8.129-9.502 13.105-9.502 1.352 0 2.674.273 3.901.85 5.746 2.7 7.666 11.225 4.193 18.614zm-41.118-66.316c8.343 0 15.391 9.407 15.391 20.542s-7.048 20.542-15.391 20.542c-8.342 0-15.39-9.407-15.39-20.542s7.047-20.542 15.39-20.542zm-52.114 0c8.342 0 15.39 9.407 15.39 20.542s-7.048 20.542-15.39 20.542c-8.343 0-15.391-9.407-15.391-20.542s7.049-20.542 15.391-20.542z"/><path id="XMLID_529_" d="m108 389c-2.63 0-5.21 1.07-7.07 2.93s-2.93 4.44-2.93 7.07 1.07 5.21 2.93 7.07 4.44 2.93 7.07 2.93 5.21-1.07 7.07-2.93 2.93-4.44 2.93-7.07-1.07-5.21-2.93-7.07-4.44-2.93-7.07-2.93z"/><path id="XMLID_530_" d="m398 389c-2.63 0-5.21 1.07-7.07 2.93s-2.93 4.44-2.93 7.07 1.07 5.21 2.93 7.07 4.44 2.93 7.07 2.93 5.21-1.07 7.07-2.93 2.93-4.44 2.93-7.07-1.07-5.21-2.93-7.07-4.44-2.93-7.07-2.93z"/><path id="XMLID_782_" d="m502 221h-6.344l-50-83.153c-1.808-3.007-5.061-4.847-8.57-4.847h-73.086v-64c0-5.523-4.477-10-10-10h-126.207c-5.523 0-10 4.477-10 10s4.477 10 10 10h116.207v256h-324v-256h117.793c5.523 0 10-4.477 10-10s-4.477-10-10-10h-127.793c-5.523 0-10 4.477-10 10v320c0 5.523 4.477 10 10 10h44c0 29.776 24.224 54 54 54s54-24.224 54-54h182c0 29.776 24.224 54 54 54s54-24.224 54-54h50c5.523 0 10-4.477 10-10v-158c0-5.523-4.477-10-10-10zm-35 20h25v20.333h-25zm-35.57-88 40.888 68h-108.318v-68zm-67.43 88h83v30.333c0 5.523 4.477 10 10 10h35v53.667h-128zm-344 138v-24h56.754c-8.398 5.981-15.014 14.298-18.898 24zm88 54c-18.748 0-34-15.252-34-34s15.252-34 34-34 34 15.252 34 34-15.252 34-34 34zm50.144-54c-3.884-9.702-10.5-18.019-18.898-24h227.508c-8.398 5.981-15.014 14.298-18.898 24zm239.856 54c-18.748 0-34-15.252-34-34s15.252-34 34-34 34 15.252 34 34-15.252 34-34 34zm94-54h-43.856c-3.884-9.702-10.5-18.019-18.898-24h62.754z"/><path id="XMLID_1421_" d="m182.79 79c2.64 0 5.21-1.07 7.08-2.93 1.86-1.86 2.92-4.44 2.92-7.07s-1.06-5.21-2.92-7.07c-1.87-1.86-4.44-2.93-7.08-2.93-2.63 0-5.21 1.07-7.07 2.93s-2.93 4.44-2.93 7.07 1.07 5.21 2.93 7.07 4.44 2.93 7.07 2.93z"/></g></g></svg>